<svg xmlns="http://www.w3.org/2000/svg" viewBox="0 0 535.77 434.07"><defs><style>.a,.d,.e,.f{stroke:#000;}.a,.b,.c,.d,.e,.f{stroke-miterlimit:10;}.b,.c,.e,.f{fill:none;}.b{stroke:#666;}.c{stroke:#93278f;stroke-width:4px;}.d{stroke-width:2px;}.f{stroke-dasharray:12.77 12.77;}</style></defs><title>frustum</title><rect class="a" x="40.6" y="490.83" width="27" height="21" transform="translate(-357.48 79.72) rotate(-41.93)"/><line class="b" x1="33.67" y1="402.21" x2="218.67" y2="0.21"/><line class="b" x1="526.67" y1="282.21" x2="33.67" y2="402.21"/><line class="b" x1="476.67" y1="24.21" x2="33.67" y2="402.21"/><line class="c" x1="101.2" y1="255.46" x2="171.3" y2="284.77"/><line class="c" x1="198.63" y1="362.06" x2="171.3" y2="284.77"/><line class="b" x1="324.67" y1="206.21" x2="33.67" y2="402.21"/><line class="c" x1="130.29" y1="337.13" x2="101.2" y2="255.46"/><line class="c" x1="198.63" y1="362.06" x2="130.29" y2="337.13"/><line class="c" x1="198.49" y1="44.05" x2="410.16" y2="80.96"/><line class="c" x1="458.57" y1="298.79" x2="410.16" y2="80.96"/><line class="c" x1="264.17" y1="246.96" x2="198.49" y2="44.05"/><line class="c" x1="458.57" y1="298.79" x2="264.17" y2="246.96"/><line class="c" x1="101.2" y1="255.46" x2="198.49" y2="44.05"/><line class="c" x1="171.3" y1="284.77" x2="410.16" y2="80.96"/><line class="c" x1="198.63" y1="362.06" x2="458.57" y2="298.79"/><line class="c" x1="130.29" y1="337.13" x2="264.17" y2="246.96"/><polygon class="d" points="25.43 409.86 32.75 390.31 44.83 404.57 25.43 409.86"/><path d="M157.48,467.88c0-1.7,0-3.09-.14-4.45H160l0.17,2.72h0.07a6,6,0,0,1,5.44-3.09c2.28,0,5.81,1.36,5.81,7v9.83h-3v-9.49c0-2.65-1-4.86-3.81-4.86a4.25,4.25,0,0,0-4,3.06,4.31,4.31,0,0,0-.2,1.39v9.89h-3v-12Z" transform="translate(-36.33 -84.79)"/><path d="M178,472.19c0.07,4,2.65,5.71,5.64,5.71a10.81,10.81,0,0,0,4.56-.85l0.51,2.14a13.33,13.33,0,0,1-5.47,1c-5.07,0-8.09-3.33-8.09-8.29s2.92-8.87,7.72-8.87c5.37,0,6.8,4.73,6.8,7.75a11.34,11.34,0,0,1-.1,1.39H178Zm8.77-2.14c0-1.9-.78-4.86-4.15-4.86-3,0-4.35,2.79-4.59,4.86h8.74Z" transform="translate(-36.33 -84.79)"/><path d="M202.5,479.88l-0.24-2.07h-0.1a6.13,6.13,0,0,1-5,2.45,4.69,4.69,0,0,1-5-4.73c0-4,3.54-6.15,9.89-6.12v-0.34c0-1.36-.37-3.81-3.74-3.81a8.2,8.2,0,0,0-4.28,1.22l-0.68-2a10.2,10.2,0,0,1,5.41-1.46c5,0,6.26,3.43,6.26,6.73v6.15a23.15,23.15,0,0,0,.27,3.94H202.5Zm-0.44-8.4c-3.26-.07-7,0.51-7,3.71a2.65,2.65,0,0,0,2.82,2.86,4.09,4.09,0,0,0,4-2.75,3.12,3.12,0,0,0,.17-1v-2.86Z" transform="translate(-36.33 -84.79)"/><path d="M209.77,468.56c0-1.94,0-3.6-.14-5.13h2.62l0.1,3.23h0.14A4.94,4.94,0,0,1,217,463a3.22,3.22,0,0,1,.85.1V466a4.53,4.53,0,0,0-1-.1c-2.11,0-3.6,1.6-4,3.84a8.38,8.38,0,0,0-.14,1.39v8.77h-3V468.56Z" transform="translate(-36.33 -84.79)"/><path d="M228.1,468.79c0-2.11-.07-3.81-0.14-5.37h2.69l0.14,2.82h0.07a6.47,6.47,0,0,1,5.85-3.2c4,0,7,3.37,7,8.36,0,5.92-3.6,8.84-7.48,8.84a5.77,5.77,0,0,1-5.07-2.58h-0.07v8.94h-3V468.79Zm3,4.39a6.71,6.71,0,0,0,.14,1.22,4.62,4.62,0,0,0,4.49,3.5c3.16,0,5-2.58,5-6.36,0-3.3-1.73-6.12-4.9-6.12a4.77,4.77,0,0,0-4.52,3.71,4.85,4.85,0,0,0-.2,1.22v2.82Z" transform="translate(-36.33 -84.79)"/><path d="M247.44,455.74h3v24.14h-3V455.74Z" transform="translate(-36.33 -84.79)"/><path d="M264.58,479.88l-0.24-2.07h-0.1a6.13,6.13,0,0,1-5,2.45,4.69,4.69,0,0,1-5-4.73c0-4,3.54-6.15,9.89-6.12v-0.34c0-1.36-.37-3.81-3.74-3.81a8.2,8.2,0,0,0-4.28,1.22l-0.68-2a10.2,10.2,0,0,1,5.41-1.46c5,0,6.26,3.43,6.26,6.73v6.15a23.15,23.15,0,0,0,.27,3.94h-2.72Zm-0.44-8.4c-3.26-.07-7,0.51-7,3.71A2.65,2.65,0,0,0,260,478a4.09,4.09,0,0,0,4-2.75,3.12,3.12,0,0,0,.17-1v-2.86Z" transform="translate(-36.33 -84.79)"/><path d="M271.86,467.88c0-1.7,0-3.09-.14-4.45h2.65l0.17,2.72h0.07A6,6,0,0,1,280,463c2.28,0,5.81,1.36,5.81,7v9.83h-3v-9.49c0-2.65-1-4.86-3.81-4.86a4.25,4.25,0,0,0-4,3.06,4.31,4.31,0,0,0-.2,1.39v9.89h-3v-12Z" transform="translate(-36.33 -84.79)"/><path d="M292.39,472.19c0.07,4,2.65,5.71,5.64,5.71a10.8,10.8,0,0,0,4.56-.85l0.51,2.14a13.33,13.33,0,0,1-5.47,1c-5.07,0-8.09-3.33-8.09-8.29s2.92-8.87,7.72-8.87c5.37,0,6.8,4.73,6.8,7.75a11.22,11.22,0,0,1-.1,1.39H292.39Zm8.77-2.14c0-1.9-.78-4.86-4.15-4.86-3,0-4.35,2.79-4.59,4.86h8.74Z" transform="translate(-36.33 -84.79)"/><path d="M270.45,198V183.87h-2.31v-2.28h2.31v-0.78c0-2.31.51-4.42,1.9-5.75a5.73,5.73,0,0,1,4-1.53,6.94,6.94,0,0,1,2.55.48l-0.41,2.31a4.46,4.46,0,0,0-1.9-.37c-2.55,0-3.2,2.24-3.2,4.76v0.88h4v2.28h-4V198h-3Z" transform="translate(-36.33 -84.79)"/><path d="M289.18,198L288.95,196h-0.1a6.13,6.13,0,0,1-5,2.45,4.69,4.69,0,0,1-5-4.73c0-4,3.54-6.15,9.89-6.12v-0.34c0-1.36-.37-3.81-3.74-3.81a8.2,8.2,0,0,0-4.28,1.22l-0.68-2a10.21,10.21,0,0,1,5.41-1.46c5,0,6.26,3.43,6.26,6.73v6.15a23.15,23.15,0,0,0,.27,3.94h-2.72Zm-0.44-8.4c-3.26-.07-7,0.51-7,3.71a2.65,2.65,0,0,0,2.82,2.86,4.09,4.09,0,0,0,4-2.75,3.12,3.12,0,0,0,.17-1v-2.86Z" transform="translate(-36.33 -84.79)"/><path d="M296.46,186.72c0-1.94,0-3.6-.14-5.13h2.62l0.1,3.23h0.14a4.94,4.94,0,0,1,4.55-3.6,3.25,3.25,0,0,1,.85.1v2.82a4.51,4.51,0,0,0-1-.1c-2.11,0-3.6,1.6-4,3.84a8.44,8.44,0,0,0-.14,1.39V198h-3V186.72Z" transform="translate(-36.33 -84.79)"/><path d="M314.79,187c0-2.11-.07-3.81-0.14-5.37h2.69l0.14,2.82h0.07a6.47,6.47,0,0,1,5.85-3.2c4,0,7,3.37,7,8.36,0,5.92-3.6,8.84-7.48,8.84a5.77,5.77,0,0,1-5.07-2.58h-0.07v8.94h-3V187Zm3,4.39a6.7,6.7,0,0,0,.14,1.22,4.62,4.62,0,0,0,4.49,3.5c3.16,0,5-2.58,5-6.36,0-3.3-1.73-6.12-4.9-6.12a4.77,4.77,0,0,0-4.52,3.71,4.83,4.83,0,0,0-.2,1.22v2.82Z" transform="translate(-36.33 -84.79)"/><path d="M334.13,173.91h3V198h-3V173.91Z" transform="translate(-36.33 -84.79)"/><path d="M351.27,198L351,196h-0.1a6.13,6.13,0,0,1-5,2.45,4.69,4.69,0,0,1-5-4.73c0-4,3.54-6.15,9.89-6.12v-0.34c0-1.36-.37-3.81-3.74-3.81a8.2,8.2,0,0,0-4.28,1.22l-0.68-2a10.21,10.21,0,0,1,5.41-1.46c5,0,6.25,3.43,6.25,6.73v6.15A23.15,23.15,0,0,0,354,198h-2.72Zm-0.44-8.4c-3.26-.07-7,0.51-7,3.71a2.65,2.65,0,0,0,2.82,2.86,4.09,4.09,0,0,0,4-2.75,3.11,3.11,0,0,0,.17-1v-2.86Z" transform="translate(-36.33 -84.79)"/><path d="M358.54,186c0-1.7,0-3.09-.14-4.45h2.65l0.17,2.72h0.07a6,6,0,0,1,5.44-3.09c2.28,0,5.81,1.36,5.81,7V198h-3v-9.48c0-2.65-1-4.86-3.81-4.86a4.25,4.25,0,0,0-4,3.06,4.31,4.31,0,0,0-.2,1.39V198h-3V186Z" transform="translate(-36.33 -84.79)"/><path d="M379.08,190.36c0.07,4,2.65,5.71,5.64,5.71a10.82,10.82,0,0,0,4.56-.85l0.51,2.14a13.33,13.33,0,0,1-5.47,1c-5.07,0-8.09-3.33-8.09-8.29s2.92-8.87,7.72-8.87c5.37,0,6.8,4.73,6.8,7.75a11.23,11.23,0,0,1-.1,1.39H379.08Zm8.77-2.14c0-1.9-.78-4.86-4.15-4.86-3,0-4.35,2.79-4.59,4.86h8.74Z" transform="translate(-36.33 -84.79)"/><path d="M307.38,106.26H309v5.44h0a2.94,2.94,0,0,1,1.13-1.12,3.26,3.26,0,0,1,1.62-.45c1.17,0,3,.72,3,3.73V119h-1.58v-5c0-1.4-.52-2.59-2-2.59a2.28,2.28,0,0,0-2.12,1.58,1.92,1.92,0,0,0-.11.76V119h-1.58V106.26Z" transform="translate(-36.33 -84.79)"/><path d="M325.25,114.62a4.26,4.26,0,0,1-4.34,4.63,4.14,4.14,0,0,1-4.18-4.48c0-2.92,1.91-4.63,4.32-4.63S325.25,112,325.25,114.62Zm-6.91.09c0,1.91,1.1,3.35,2.65,3.35s2.65-1.42,2.65-3.39c0-1.48-.74-3.35-2.61-3.35S318.34,113,318.34,114.71Z" transform="translate(-36.33 -84.79)"/><path d="M327.25,113c0-1,0-1.91-.07-2.72h1.39l0.05,1.71h0.07a2.61,2.61,0,0,1,2.41-1.91,1.7,1.7,0,0,1,.45.05v1.49a2.38,2.38,0,0,0-.54-0.05,2.22,2.22,0,0,0-2.12,2,4.56,4.56,0,0,0-.07.74V119h-1.57v-6Z" transform="translate(-36.33 -84.79)"/><path d="M335,107.88a1,1,0,0,1-2,0,1,1,0,0,1,1-1A0.94,0.94,0,0,1,335,107.88ZM333.21,119v-8.71h1.58V119h-1.58Z" transform="translate(-36.33 -84.79)"/><path d="M336.43,118.13l3.94-5.13c0.38-.47.74-0.88,1.13-1.35v0h-4.72v-1.28h6.64l0,1-3.89,5.06c-0.36.49-.72,0.92-1.12,1.37v0h5.1V119h-7.08v-0.92Z" transform="translate(-36.33 -84.79)"/><path d="M352.88,114.62a4.26,4.26,0,0,1-4.34,4.63,4.14,4.14,0,0,1-4.18-4.48c0-2.92,1.91-4.63,4.32-4.63S352.88,112,352.88,114.62Zm-6.91.09c0,1.91,1.1,3.35,2.65,3.35s2.65-1.42,2.65-3.39c0-1.48-.74-3.35-2.61-3.35S346,113,346,114.71Z" transform="translate(-36.33 -84.79)"/><path d="M354.88,112.69c0-.9,0-1.64-0.07-2.36h1.4l0.09,1.44h0a3.21,3.21,0,0,1,2.88-1.64c1.21,0,3.08.72,3.08,3.71V119h-1.58v-5c0-1.4-.52-2.57-2-2.57a2.32,2.32,0,0,0-2.23,2.36V119h-1.58v-6.36Z" transform="translate(-36.33 -84.79)"/><path d="M366.7,107.83v2.5H369v1.21H366.7v4.7c0,1.08.31,1.69,1.19,1.69a3.51,3.51,0,0,0,.92-0.11l0.07,1.19a3.88,3.88,0,0,1-1.4.22,2.2,2.2,0,0,1-1.71-.67,3.23,3.23,0,0,1-.61-2.27v-4.75H363.8v-1.21h1.35v-2.09Z" transform="translate(-36.33 -84.79)"/><path d="M375.58,119l-0.13-1.1H375.4a3.25,3.25,0,0,1-2.67,1.3,2.48,2.48,0,0,1-2.67-2.5c0-2.11,1.87-3.26,5.24-3.24v-0.18a1.8,1.8,0,0,0-2-2,4.34,4.34,0,0,0-2.27.65l-0.36-1a5.41,5.41,0,0,1,2.86-.77c2.67,0,3.31,1.82,3.31,3.56V117A12.23,12.23,0,0,0,377,119h-1.44Zm-0.23-4.45c-1.73,0-3.69.27-3.69,2a1.4,1.4,0,0,0,1.49,1.51,2.17,2.17,0,0,0,2.11-1.46,1.66,1.66,0,0,0,.09-0.5V114.6Z" transform="translate(-36.33 -84.79)"/><path d="M379.43,106.26H381V119h-1.58V106.26Z" transform="translate(-36.33 -84.79)"/><path d="M387.65,119v-7.51h-1.22v-1.21h1.22v-0.41a4.11,4.11,0,0,1,1-3,3,3,0,0,1,2.12-.81,3.67,3.67,0,0,1,1.35.25l-0.22,1.22a2.37,2.37,0,0,0-1-.2c-1.35,0-1.69,1.19-1.69,2.52v0.47h2.11v1.21h-2.11V119h-1.57Z" transform="translate(-36.33 -84.79)"/><path d="M400.4,114.62a4.26,4.26,0,0,1-4.34,4.63,4.14,4.14,0,0,1-4.18-4.48c0-2.92,1.91-4.63,4.32-4.63S400.4,112,400.4,114.62Zm-6.91.09c0,1.91,1.1,3.35,2.65,3.35s2.65-1.42,2.65-3.39c0-1.48-.74-3.35-2.61-3.35S393.49,113,393.49,114.71Z" transform="translate(-36.33 -84.79)"/><path d="M402.88,110.33l1.71,4.9a22.34,22.34,0,0,1,.7,2.23h0.05c0.2-.72.45-1.44,0.74-2.23l1.69-4.9h1.66L406,119H404.5l-3.31-8.71h1.69Z" transform="translate(-36.33 -84.79)"/><path d="M492,247.33l1.71,4.9a22.34,22.34,0,0,1,.7,2.23h0.05c0.2-.72.45-1.44,0.74-2.23l1.69-4.9h1.66L495.12,256h-1.51l-3.31-8.71H492Z" transform="translate(-36.33 -84.79)"/><path d="M500.74,252a2.79,2.79,0,0,0,3,3,5.73,5.73,0,0,0,2.41-.45l0.27,1.13a7,7,0,0,1-2.9.54,4,4,0,0,1-4.29-4.39c0-2.63,1.55-4.7,4.09-4.7,2.84,0,3.6,2.5,3.6,4.1a5.84,5.84,0,0,1-.05.74h-6.12Zm4.65-1.13a2.26,2.26,0,0,0-2.2-2.57,2.63,2.63,0,0,0-2.43,2.57h4.63Z" transform="translate(-36.33 -84.79)"/><path d="M508.87,250c0-1,0-1.91-.07-2.72h1.39l0.05,1.71h0.07a2.62,2.62,0,0,1,2.41-1.91,1.71,1.71,0,0,1,.45.05v1.49a2.38,2.38,0,0,0-.54-0.05,2.22,2.22,0,0,0-2.13,2,4.45,4.45,0,0,0-.07.74V256h-1.57v-6Z" transform="translate(-36.33 -84.79)"/><path d="M517.1,244.83v2.5h2.27v1.21H517.1v4.7c0,1.08.31,1.69,1.19,1.69a3.51,3.51,0,0,0,.92-0.11l0.07,1.19a3.88,3.88,0,0,1-1.4.22,2.2,2.2,0,0,1-1.71-.67,3.23,3.23,0,0,1-.61-2.27v-4.75H514.2v-1.21h1.35v-2.09Z" transform="translate(-36.33 -84.79)"/><path d="M522.91,244.88a1,1,0,0,1-2,0,1,1,0,0,1,1-1A0.94,0.94,0,0,1,522.91,244.88ZM521.15,256v-8.71h1.58V256h-1.58Z" transform="translate(-36.33 -84.79)"/><path d="M531.57,255.72a5.83,5.83,0,0,1-2.5.5,4.14,4.14,0,0,1-4.34-4.45,4.43,4.43,0,0,1,4.68-4.63,5.3,5.3,0,0,1,2.2.45l-0.36,1.22a3.68,3.68,0,0,0-1.84-.41,3.29,3.29,0,0,0-.05,6.55,4.5,4.5,0,0,0,1.94-.43Z" transform="translate(-36.33 -84.79)"/><path d="M538.25,256l-0.13-1.1h-0.05a3.25,3.25,0,0,1-2.67,1.3,2.48,2.48,0,0,1-2.66-2.5c0-2.11,1.87-3.26,5.24-3.24v-0.18a1.8,1.8,0,0,0-2-2,4.34,4.34,0,0,0-2.27.65l-0.36-1a5.41,5.41,0,0,1,2.86-.77c2.67,0,3.31,1.82,3.31,3.56V254a12.34,12.34,0,0,0,.14,2.09h-1.44ZM538,251.6c-1.73,0-3.69.27-3.69,2a1.4,1.4,0,0,0,1.49,1.51,2.17,2.17,0,0,0,2.11-1.46,1.66,1.66,0,0,0,.09-0.5V251.6Z" transform="translate(-36.33 -84.79)"/><path d="M542.1,243.26h1.58V256H542.1V243.26Z" transform="translate(-36.33 -84.79)"/><path d="M550.32,256v-7.51H549.1v-1.21h1.22v-0.41a4.11,4.11,0,0,1,1-3,3,3,0,0,1,2.12-.81,3.67,3.67,0,0,1,1.35.25l-0.22,1.22a2.37,2.37,0,0,0-1-.2c-1.35,0-1.69,1.19-1.69,2.52v0.47H554v1.21h-2.11V256h-1.57Z" transform="translate(-36.33 -84.79)"/><path d="M563.07,251.62a4.26,4.26,0,0,1-4.34,4.63,4.14,4.14,0,0,1-4.18-4.48c0-2.92,1.91-4.63,4.32-4.63S563.07,249,563.07,251.62Zm-6.91.09c0,1.91,1.1,3.35,2.65,3.35s2.65-1.42,2.65-3.39c0-1.48-.74-3.35-2.61-3.35S556.16,250,556.16,251.71Z" transform="translate(-36.33 -84.79)"/><path d="M565.55,247.33l1.71,4.9a22.59,22.59,0,0,1,.7,2.23H568c0.2-.72.45-1.44,0.74-2.23l1.69-4.9h1.66L568.69,256h-1.51l-3.31-8.71h1.69Z" transform="translate(-36.33 -84.79)"/><line class="e" x1="423.9" y1="85.27" x2="425.18" y2="91.13"/><line class="f" x1="427.91" y1="103.61" x2="464.79" y2="272.05"/><line class="e" x1="466.15" y1="278.29" x2="467.44" y2="284.15"/><polygon points="420.61 89.38 421.48 89.89 423.98 85.64 428.03 88.45 428.6 87.63 423.67 84.21 420.61 89.38"/><polygon points="462.73 281.79 463.3 280.96 467.35 283.77 469.86 279.53 470.72 280.04 467.67 285.21 462.73 281.79"/><line class="e" x1="211.32" y1="34.09" x2="217.22" y2="35.15"/><line class="f" x1="229.8" y1="37.41" x2="399.52" y2="67.87"/><line class="e" x1="405.8" y1="69" x2="411.71" y2="70.06"/><polygon points="213.86 38.7 214.66 38.1 211.7 34.16 215.84 31.5 215.3 30.66 210.25 33.9 213.86 38.7"/><polygon points="407.72 73.5 407.18 72.66 411.33 70 408.37 66.05 409.17 65.45 412.77 70.25 407.72 73.5"/></svg>